# xmcd
#
# Track frame offsets:
#	150
#	17143
#	31767
#	47435
#	63009
#	78337
#	95103
#	110307
#	128223
#	149565
#	164627
#	182072
#	195817
#	217880
#	232989
#	250348
#	267634
#	278023
#	295890
#	315638
#
# Disc length: 4434 seconds
#
# Revision: 1
# Processed by: cddbd v1.5PL3 Copyright (c) Steve Scherf et al.
# Submitted via: audiograbber 1.83.01
#
DISCID=19115014
DTITLE=Various Artist - Operation Summer Sun.  (20001)
DYEAR=1900
DGENRE=
TTITLE0=Tomy Or Zox. - My Desire. (Rmx)
TTITLE1=One Track Mind. - I Like You.
TTITLE2=Pasion Fruit. - Hot Tongue Twister. (Vamanos)
TTITLE3=Dj Mendez. - Razor Tongue.
TTITLE4=Touch and Go. - Tango In Harlem.
TTITLE5=Scooter. - Summer Wine.
TTITLE6=Pink. - There You Go.
TTITLE7=Madison Abvenue. - Shugar Daddy.
TTITLE8=Julio Iglesias. - Mal Acostumbrado.
TTITLE9=Jon Secada. - Papi.
TTITLE10=Santana. - Maria Maria. (Rmx)
TTITLE11=Ruben Gomes. - Simpre Manana.
TTITLE12=Melanie C. - Never Be The Same Again.
TTITLE13=Mamabo Brothers feat. Joe Dassin. - Taka Taka.
TTITLE14=Manu Chao. - Desaparecido.
TTITLE15=Pets. - Da Di Dam.
TTITLE16=Moloko. - Time Is Now. (Food Mix)
TTITLE17=Lido Brothers. - Mambo Italiano.
TTITLE18=Lara Fabian. - Adagio.
TTITLE19=Dj Tonka. - Don't Be Afraid.
EXTD=
EXTT0=
EXTT1=
EXTT2=
EXTT3=
EXTT4=
EXTT5=
EXTT6=
EXTT7=
EXTT8=
EXTT9=
EXTT10=
EXTT11=
EXTT12=
EXTT13=
EXTT14=
EXTT15=
EXTT16=
EXTT17=
EXTT18=
EXTT19=
PLAYORDER=
